# xmcd CD database file
#
# Track frame offsets:
#	150
#	21045
#	40157
#	62787
#	83850
#	102370
#	124500
#	145055
#	159825
#	184475
#	203785
#	225240
#	244340
#	265187
#	296995
#
# Disc length: 4440 seconds
#
# Revision: 6
# Processed by: cddbd v1.5.1PL2 Copyright (c) Steve Scherf et al.
# Submitted via: CDex 1.51
#
DISCID=cf11560f
DTITLE=張宇 - 不甘寂寞
DYEAR=2001
DGENRE=國語流行
TTITLE0=最勇敢的季節
TTITLE1=不甘寂寞
TTITLE2=餘興節目
TTITLE3=玩味
TTITLE4=命
TTITLE5=情人知己
TTITLE6=毀類
TTITLE7=消耗
TTITLE8=幸福的滋味
TTITLE9=變了
TTITLE10=天地
TTITLE11=不甘寂寞 (kala)
TTITLE12=最勇敢的季節(kala)
TTITLE13=毀類(kala)
TTITLE14=data
EXTD=YEAR: 2001
EXTT0=
EXTT1=
EXTT2=
EXTT3=
EXTT4=
EXTT5=
EXTT6=
EXTT7=
EXTT8=
EXTT9=
EXTT10=
EXTT11=
EXTT12=
EXTT13=
EXTT14=
PLAYORDER=
